<svg width="69" height="68" viewBox="0 0 69 68" fill="none" xmlns="http://www.w3.org/2000/svg">
<g clip-path="url(#clip0_99_4310)">
<path d="M42.5938 54.125C44.4922 54.125 46.0312 52.586 46.0312 50.6875C46.0312 48.789 44.4922 47.25 42.5938 47.25C40.6953 47.25 39.1562 48.789 39.1562 50.6875C39.1562 52.586 40.6953 54.125 42.5938 54.125Z" fill="white"/>
<path d="M42.5938 19.75C44.4922 19.75 46.0312 18.211 46.0312 16.3125C46.0312 14.414 44.4922 12.875 42.5938 12.875C40.6953 12.875 39.1562 14.414 39.1562 16.3125C39.1562 18.211 40.6953 19.75 42.5938 19.75Z" fill="white"/>
<path d="M13.375 36.9375C15.2735 36.9375 16.8125 35.3985 16.8125 33.5C16.8125 31.6015 15.2735 30.0625 13.375 30.0625C11.4765 30.0625 9.9375 31.6015 9.9375 33.5C9.9375 35.3985 11.4765 36.9375 13.375 36.9375Z" fill="white"/>
<path d="M54.625 26.625C53.105 26.6296 51.6295 27.1383 50.4296 28.0714C49.2296 29.0045 48.3731 30.3092 47.9942 31.7813H40.6308C40.3874 30.8119 39.9338 29.9078 39.3022 29.1333C38.6705 28.3587 37.8763 27.7325 36.9756 27.2991C36.075 26.8657 35.0901 26.6357 34.0907 26.6254C33.0913 26.615 32.1018 26.8246 31.1924 27.2393L25.7328 20.4155C26.6311 19.2358 27.1199 17.7953 27.125 16.3125C27.125 14.9528 26.7218 13.6235 25.9664 12.493C25.2109 11.3624 24.1372 10.4812 22.881 9.96083C21.6247 9.44048 20.2424 9.30433 18.9088 9.5696C17.5751 9.83488 16.3501 10.4897 15.3886 11.4511C14.4272 12.4126 13.7724 13.6376 13.5071 14.9713C13.2418 16.3049 13.378 17.6872 13.8983 18.9435C14.4187 20.1997 15.2999 21.2734 16.4305 22.0289C17.561 22.7843 18.8903 23.1875 20.25 23.1875C21.2191 23.185 22.1765 22.9756 23.0581 22.5732L28.5168 29.3967C27.6143 30.574 27.1252 32.0162 27.1252 33.4997C27.1252 34.9832 27.6143 36.4253 28.5168 37.6027L23.0584 44.4261C22.1767 44.0239 21.2192 43.8148 20.25 43.8125C18.8903 43.8125 17.561 44.2157 16.4305 44.9711C15.2999 45.7266 14.4187 46.8003 13.8983 48.0566C13.378 49.3128 13.2418 50.6951 13.5071 52.0287C13.7724 53.3624 14.4272 54.5874 15.3886 55.5489C16.3501 56.5103 17.5751 57.1651 18.9088 57.4304C20.2424 57.6957 21.6247 57.5595 22.881 57.0392C24.1372 56.5188 25.2109 55.6376 25.9664 54.507C26.7218 53.3765 27.125 52.0472 27.125 50.6875C27.12 49.2047 26.6312 47.7641 25.7328 46.5845L31.1912 39.7611C32.1007 40.1758 33.0903 40.3855 34.0898 40.3752C35.0894 40.3649 36.0745 40.1349 36.9752 39.7015C37.8759 39.268 38.6703 38.6418 39.3021 37.8671C39.9338 37.0924 40.3874 36.1883 40.6308 35.2188H47.9942C48.3178 36.4609 48.9832 37.5874 49.9148 38.4704C50.8465 39.3534 52.007 39.9574 53.2647 40.2139C54.5225 40.4704 55.8269 40.369 57.0299 39.9214C58.2329 39.4738 59.2863 38.6978 60.0704 37.6815C60.8545 36.6653 61.3379 35.4495 61.4658 34.1723C61.5936 32.8951 61.3608 31.6076 60.7937 30.4561C60.2265 29.3046 59.3479 28.3352 58.2575 27.658C57.167 26.9808 55.9086 26.6229 54.625 26.625ZM16.8125 16.3125C16.8125 15.6326 17.0141 14.968 17.3918 14.4027C17.7695 13.8374 18.3064 13.3968 18.9345 13.1367C19.5626 12.8765 20.2538 12.8084 20.9206 12.9411C21.5874 13.0737 22.1999 13.4011 22.6807 13.8818C23.1614 14.3626 23.4888 14.9751 23.6215 15.6419C23.7541 16.3087 23.686 16.9999 23.4258 17.628C23.1657 18.2561 22.7251 18.793 22.1598 19.1707C21.5945 19.5484 20.9299 19.75 20.25 19.75C19.3386 19.749 18.4649 19.3865 17.8205 18.742C17.176 18.0976 16.8135 17.2239 16.8125 16.3125ZM20.25 54.125C19.5701 54.125 18.9055 53.9234 18.3402 53.5457C17.7749 53.168 17.3343 52.6311 17.0742 52.003C16.814 51.3749 16.7459 50.6837 16.8786 50.0169C17.0112 49.3501 17.3386 48.7376 17.8193 48.2568C18.3001 47.7761 18.9126 47.4487 19.5794 47.3161C20.2462 47.1834 20.9374 47.2515 21.5655 47.5117C22.1936 47.7718 22.7305 48.2124 23.1082 48.7777C23.4859 49.343 23.6875 50.0076 23.6875 50.6875C23.6865 51.5989 23.324 52.4726 22.6795 53.117C22.0351 53.7615 21.1614 54.124 20.25 54.125ZM34 36.9375C33.3201 36.9375 32.6555 36.7359 32.0902 36.3582C31.5249 35.9805 31.0843 35.4436 30.8242 34.8155C30.564 34.1874 30.4959 33.4962 30.6286 32.8294C30.7612 32.1626 31.0886 31.5501 31.5693 31.0693C32.0501 30.5886 32.6626 30.2612 33.3294 30.1286C33.9962 29.9959 34.6874 30.064 35.3155 30.3242C35.9436 30.5843 36.4805 31.0249 36.8582 31.5902C37.2359 32.1555 37.4375 32.8201 37.4375 33.5C37.4365 34.4114 37.074 35.2851 36.4295 35.9295C35.7851 36.574 34.9114 36.9365 34 36.9375ZM54.625 36.9375C53.9451 36.9375 53.2805 36.7359 52.7152 36.3582C52.1499 35.9805 51.7093 35.4436 51.4492 34.8155C51.189 34.1874 51.1209 33.4962 51.2536 32.8294C51.3862 32.1626 51.7136 31.5501 52.1943 31.0693C52.6751 30.5886 53.2876 30.2612 53.9544 30.1286C54.6212 29.9959 55.3124 30.064 55.9405 30.3242C56.5686 30.5843 57.1055 31.0249 57.4832 31.5902C57.8609 32.1555 58.0625 32.8201 58.0625 33.5C58.0615 34.4114 57.699 35.2851 57.0545 35.9295C56.4101 36.574 55.5364 36.9365 54.625 36.9375Z" fill="white"/>
</g>
<path d="M1.5 5C1.5 2.79086 3.29086 1 5.5 1H63.5C65.7091 1 67.5 2.79086 67.5 5V63C67.5 65.2091 65.7091 67 63.5 67H5.5C3.29086 67 1.5 65.2091 1.5 63V5Z" stroke="white" stroke-width="2"/>
<defs>
<clipPath id="clip0_99_4310">
<rect width="55" height="55" fill="white" transform="translate(6.5 6)"/>
</clipPath>
</defs>
</svg>
