<svg width="68" height="68" viewBox="0 0 68 68" fill="none" xmlns="http://www.w3.org/2000/svg">
<path d="M40.2096 23.4032C37.9542 21.1479 35.0808 19.612 31.9525 18.9897C28.8243 18.3675 25.5818 18.6868 22.635 19.9074C19.6883 21.128 17.1697 23.195 15.3977 25.847C13.6256 28.499 12.6798 31.6169 12.6798 34.8064C12.6798 37.9959 13.6256 41.1138 15.3977 43.7658C17.1697 46.4178 19.6883 48.4848 22.635 49.7054C25.5818 50.926 28.8243 51.2453 31.9525 50.6231C35.0808 50.0008 37.9542 48.4649 40.2096 46.2096" stroke="white" stroke-width="3" stroke-linecap="round"/>
<path d="M55.9072 30.6729V40.858" stroke="white" stroke-width="3" stroke-linecap="round"/>
<path d="M50.8145 35.7654H60.9996" stroke="white" stroke-width="3" stroke-linecap="round"/>
<path d="M40.9697 30.6729V40.858" stroke="white" stroke-width="3" stroke-linecap="round"/>
<path d="M35.877 35.7654H46.0621" stroke="white" stroke-width="3" stroke-linecap="round"/>
<rect x="1" y="1" width="66" height="66" rx="4" stroke="white" stroke-width="2"/>
</svg>
