<svg width="68" height="68" viewBox="0 0 68 68" fill="none" xmlns="http://www.w3.org/2000/svg">
<path d="M18.4377 13C16.0648 13 14.2136 15.0538 14.4592 17.4139L18.1705 53.0916C18.3366 54.6881 19.4408 56.0306 20.9752 56.5016L32.8261 60.1397C33.5911 60.3745 34.4089 60.3745 35.1739 60.1396L47.0247 56.5016C48.5591 56.0306 49.6633 54.6881 49.8294 53.0916L53.5408 17.4139C53.7864 15.0538 51.9352 13 49.5623 13H18.4377Z" stroke="white" stroke-width="3" stroke-linecap="round" stroke-linejoin="round"/>
<path d="M21.5 23H40.83C43.1965 23 45.0457 25.0433 44.8102 27.398L43.0202 45.2979C42.8571 46.9291 41.7152 48.2957 40.1389 48.746L35.0989 50.186C34.3807 50.3912 33.6193 50.3912 32.9011 50.186L27.8611 48.746C26.2848 48.2957 25.1429 46.9291 24.9798 45.2979L24.625 41.75" stroke="white" stroke-width="3" stroke-linecap="round" stroke-linejoin="round"/>
<path d="M44 34.25H22.75" stroke="white" stroke-width="3" stroke-linecap="round" stroke-linejoin="round"/>
<path d="M1 5C1 2.79086 2.79086 1 5 1H63C65.2091 1 67 2.79086 67 5V63C67 65.2091 65.2091 67 63 67H5C2.79086 67 1 65.2091 1 63V5Z" stroke="white" stroke-width="2"/>
</svg>
