<svg width="57" height="57" viewBox="0 0 57 57" fill="none" xmlns="http://www.w3.org/2000/svg">
<rect x="1.5" y="1.76318" width="54" height="54" rx="4" stroke="white" stroke-width="2"/>
<path d="M39.75 13.7632H17.25C16.2554 13.7632 15.3016 14.1942 14.5983 14.9614C13.8951 15.7286 13.5 16.7691 13.5 17.8541V43.7632H43.5V17.8541C43.5 16.7691 43.1049 15.7286 42.4016 14.9614C41.6984 14.1942 40.7446 13.7632 39.75 13.7632ZM17.25 16.4905H39.75C40.0815 16.4905 40.3995 16.6341 40.6339 16.8899C40.8683 17.1456 41 17.4924 41 17.8541V18.7636L31.1525 29.5077C30.448 30.2732 29.4943 30.7029 28.5 30.7029C27.5057 30.7029 26.552 30.2732 25.8475 29.5077L16 18.7636V17.8541C16 17.4924 16.1317 17.1456 16.3661 16.8899C16.6005 16.6341 16.9185 16.4905 17.25 16.4905ZM16 41.0359V22.6268L24.08 31.4359C25.2533 32.7126 26.8428 33.4296 28.5 33.4296C30.1572 33.4296 31.7467 32.7126 32.92 31.4359L41 22.6268V41.0359H16Z" fill="white"/>
</svg>
