<svg width="68" height="68" viewBox="0 0 68 68" fill="none" xmlns="http://www.w3.org/2000/svg">
<g clip-path="url(#clip0_99_4326)">
<path d="M17.458 21.1337C17.458 19.2546 18.3031 17.4525 19.8073 16.1238C21.3115 14.795 23.3516 14.0486 25.4788 14.0486H33.4997V28.2187H25.4788C23.3516 28.2187 21.3115 27.4723 19.8073 26.1436C18.3031 24.8148 17.458 23.0127 17.458 21.1337Z" stroke="white" stroke-width="3" stroke-linecap="round" stroke-linejoin="round"/>
<path d="M33.5 14.0486H41.5208C42.5741 14.0486 43.6171 14.2318 44.5903 14.5879C45.5634 14.944 46.4476 15.4658 47.1924 16.1238C47.9372 16.7817 48.528 17.5627 48.9311 18.4223C49.3342 19.2819 49.5417 20.2032 49.5417 21.1337C49.5417 22.0641 49.3342 22.9854 48.9311 23.845C48.528 24.7046 47.9372 25.4856 47.1924 26.1436C46.4476 26.8015 45.5634 27.3233 44.5903 27.6794C43.6171 28.0355 42.5741 28.2187 41.5208 28.2187H33.5V14.0486Z" stroke="white" stroke-width="3" stroke-linecap="round" stroke-linejoin="round"/>
<path d="M33.5 35.3038C33.5 34.3734 33.7075 33.4521 34.1105 32.5925C34.5136 31.7329 35.1044 30.9518 35.8492 30.2939C36.5941 29.636 37.4783 29.1141 38.4514 28.7581C39.4245 28.402 40.4675 28.2188 41.5208 28.2188C42.5741 28.2188 43.6171 28.402 44.5903 28.7581C45.5634 29.1141 46.4476 29.636 47.1924 30.2939C47.9372 30.9518 48.528 31.7329 48.9311 32.5925C49.3342 33.4521 49.5417 34.3734 49.5417 35.3038C49.5417 36.2342 49.3342 37.1556 48.9311 38.0152C48.528 38.8748 47.9372 39.6558 47.1924 40.3137C46.4476 40.9716 45.5634 41.4935 44.5903 41.8496C43.6171 42.2056 42.5741 42.3889 41.5208 42.3889C40.4675 42.3889 39.4245 42.2056 38.4514 41.8496C37.4783 41.4935 36.5941 40.9716 35.8492 40.3137C35.1044 39.6558 34.5136 38.8748 34.1105 38.0152C33.7075 37.1556 33.5 36.2342 33.5 35.3038Z" stroke="white" stroke-width="3" stroke-linecap="round" stroke-linejoin="round"/>
<path d="M17.458 49.474C17.458 47.5949 18.3031 45.7928 19.8073 44.4641C21.3115 43.1354 23.3516 42.3889 25.4788 42.3889H33.4997V49.474C33.4997 51.3531 32.6546 53.1552 31.1504 54.4839C29.6462 55.8126 27.6061 56.5591 25.4788 56.5591C23.3516 56.5591 21.3115 55.8126 19.8073 54.4839C18.3031 53.1552 17.458 51.3531 17.458 49.474Z" stroke="white" stroke-width="3" stroke-linecap="round" stroke-linejoin="round"/>
<path d="M17.458 35.3038C17.458 33.4247 18.3031 31.6226 19.8073 30.2939C21.3115 28.9652 23.3516 28.2188 25.4788 28.2188H33.4997V42.3889H25.4788C23.3516 42.3889 21.3115 41.6424 19.8073 40.3137C18.3031 38.985 17.458 37.1829 17.458 35.3038Z" stroke="white" stroke-width="3" stroke-linecap="round" stroke-linejoin="round"/>
</g>
<rect x="1" y="1" width="66" height="66" rx="4" stroke="white" stroke-width="2"/>
<defs>
<clipPath id="clip0_99_4326">
<rect width="55" height="48.5833" fill="white" transform="translate(6 10)"/>
</clipPath>
</defs>
</svg>
