<svg width="58" height="56" viewBox="0 0 58 56" fill="none" xmlns="http://www.w3.org/2000/svg">
<rect x="1.5" y="1.76245" width="55" height="53" rx="4" stroke="white" stroke-width="2"/>
<g clip-path="url(#clip0_99_4417)">
<path fill-rule="evenodd" clip-rule="evenodd" d="M29.4866 15.6086C22.2295 15.6086 16.3457 21.4925 16.3457 28.7517C16.3457 34.5579 20.1109 39.4836 25.3336 41.2221C25.9909 41.3424 26.2305 40.9366 26.2305 40.5877C26.2305 40.2765 26.2195 39.4497 26.213 38.3532C22.5571 39.1472 21.786 36.5911 21.786 36.5911C21.1883 35.0736 20.3264 34.6694 20.3264 34.6694C19.1331 33.8535 20.4166 33.8699 20.4166 33.8699C21.7357 33.9634 22.4297 35.2245 22.4297 35.2245C23.6022 37.2326 25.5059 36.6524 26.2545 36.3166C26.3743 35.4673 26.7128 34.8882 27.0891 34.5595C24.1709 34.2281 21.1024 33.0999 21.1024 28.0643C21.1024 26.6298 21.6148 25.4562 22.4554 24.5375C22.3203 24.205 21.8691 22.869 22.5839 21.0593C22.5839 21.0593 23.6875 20.7061 26.1982 22.4068C27.2466 22.1154 28.3709 21.9693 29.4882 21.9644C30.6044 21.9693 31.7287 22.1154 32.7787 22.4068C35.2878 20.7061 36.3892 21.0593 36.3892 21.0593C37.1062 22.869 36.655 24.205 36.5199 24.5375C37.3621 25.4562 37.8712 26.6298 37.8712 28.0643C37.8712 33.113 34.7978 34.2237 31.8698 34.5491C32.3423 34.9549 32.7623 35.7566 32.7623 36.9833C32.7623 38.7398 32.7465 40.1573 32.7465 40.5877C32.7465 40.9399 32.9827 41.349 33.6499 41.2204C38.8682 39.4786 42.6302 34.5562 42.6302 28.7517C42.6302 21.4925 36.7458 15.6086 29.4866 15.6086Z" fill="white"/>
</g>
<defs>
<clipPath id="clip0_99_4417">
<rect width="35" height="35" fill="white" transform="translate(11.5 10.7625)"/>
</clipPath>
</defs>
</svg>
