<svg width="68" height="68" viewBox="0 0 68 68" fill="none" xmlns="http://www.w3.org/2000/svg">
<g clip-path="url(#clip0_99_4304)">
<path fill-rule="evenodd" clip-rule="evenodd" d="M34.4044 10C20.9271 10 10 20.9271 10 34.4085C10 45.1914 16.9926 54.3391 26.6918 57.5678C27.9126 57.7912 28.3574 57.0377 28.3574 56.3897C28.3574 55.8118 28.3371 54.2762 28.3249 52.2398C21.5355 53.7145 20.1034 48.9675 20.1034 48.9675C18.9934 46.1491 17.3927 45.3986 17.3927 45.3986C15.1766 43.8833 17.5603 43.9137 17.5603 43.9137C20.01 44.0874 21.2988 46.4295 21.2988 46.4295C23.4763 50.1588 27.0117 49.0812 28.4021 48.4577C28.6245 46.8804 29.2532 45.8048 29.952 45.1945C24.5326 44.579 18.8339 42.4837 18.8339 33.1319C18.8339 30.4679 19.7855 28.2884 21.3466 26.5821C21.0957 25.9646 20.2578 23.4834 21.5852 20.1227C21.5852 20.1227 23.6348 19.4666 28.2975 22.6252C30.2445 22.0839 32.3326 21.8127 34.4075 21.8036C36.4804 21.8127 38.5685 22.0839 40.5185 22.6252C45.1782 19.4666 47.2237 20.1227 47.2237 20.1227C48.5552 23.4834 47.7173 25.9646 47.4664 26.5821C49.0305 28.2884 49.976 30.4679 49.976 33.1319C49.976 42.5081 44.2682 44.5709 38.8305 45.1752C39.708 45.9287 40.488 47.4177 40.488 49.6957C40.488 52.9579 40.4586 55.5904 40.4586 56.3897C40.4586 57.0437 40.8973 57.8034 42.1364 57.5648C51.8275 54.33 58.814 45.1884 58.814 34.4085C58.814 20.9271 47.8859 10 34.4044 10Z" fill="white"/>
</g>
<rect x="1" y="1" width="66" height="66" rx="4" stroke="white" stroke-width="2"/>
<defs>
<clipPath id="clip0_99_4304">
<rect width="65" height="65" fill="white" transform="translate(1 1)"/>
</clipPath>
</defs>
</svg>
