<svg width="68" height="68" viewBox="0 0 68 68" fill="none" xmlns="http://www.w3.org/2000/svg">
<path d="M18.4377 10C16.0648 10 14.2136 12.0538 14.4592 14.4139L18.1705 50.0916C18.3366 51.6881 19.4408 53.0306 20.9752 53.5016L32.8261 57.1396C33.5911 57.3745 34.4089 57.3745 35.1739 57.1396L47.0247 53.5016C48.5591 53.0306 49.6633 51.6881 49.8294 50.0916L53.5408 14.4139C53.7864 12.0538 51.9352 10 49.5623 10H18.4377Z" stroke="white" stroke-width="3" stroke-linecap="round" stroke-linejoin="round"/>
<path d="M44.8749 20.1785H28.4852C25.4777 20.1785 23.1508 22.8144 23.5238 25.7986L23.7639 27.7195C24.0767 30.2216 26.2037 32.0993 28.7253 32.0993H37.9963C40.9589 32.0993 43.2718 34.6608 42.9704 37.608L42.5399 41.8169C42.3305 43.8647 40.8875 45.5748 38.9041 46.1257L35.4604 47.0823C34.5999 47.3214 33.6911 47.3255 32.8285 47.0945L29.0408 46.0799C27.0812 45.555 25.633 43.8982 25.3751 41.886L25.0564 39.4008" stroke="white" stroke-width="3" stroke-linecap="round"/>
<rect x="1" y="1" width="66" height="66" rx="4" stroke="white" stroke-width="2"/>
</svg>
