<svg width="68" height="68" viewBox="0 0 68 68" fill="none" xmlns="http://www.w3.org/2000/svg">
<path d="M31.325 55.2255L27.2806 53.0553L16.4051 46.4523C14.9118 45.5457 14 43.9254 14 42.1784V25.2735C14 23.4854 14.9549 21.8334 16.5044 20.9409L31.2966 12.4206C32.8256 11.5399 34.7056 11.5303 36.2435 12.3954L51.4513 20.9498C53.0257 21.8354 54 23.5013 54 25.3076V42.0877C54 43.8835 53.037 45.5413 51.477 46.431L36.1661 55.163C34.6708 56.0158 32.8419 56.0394 31.325 55.2255Z" stroke="white" stroke-width="3" stroke-linecap="round"/>
<path d="M46.8463 29.5398C46.6286 27.7981 44.8542 24.4452 39.4984 24.9677C34.1425 25.4903 32.6947 27.6892 32.6403 28.7234C32.3137 30.0841 32.5097 32.8056 35.9061 32.8056C40.1515 32.8056 45.0502 34.1119 45.5401 34.2752C46.0299 34.4385 48.1347 35.5629 47.8261 38.0308C47.4994 40.6434 46.5724 41.7266 43.0908 42.2763C39.9881 42.7661 36.2312 42.8793 34.4365 41.6231C32.8035 40.4801 32.343 39.581 31.7395 38.2092M31.7395 38.2092C31.6606 38.0308 31.6874 38.0911 31.6606 38.0308C31.1381 36.8551 31.4955 37.6599 31.7395 38.2092Z" stroke="white" stroke-width="3" stroke-linecap="round"/>
<path d="M26.9645 25.5454V37.3122V41.525C26.9645 42.5903 25.6365 44.0817 20.3242 41.525" stroke="white" stroke-width="3" stroke-linecap="round"/>
<rect x="1" y="1" width="66" height="66" rx="4" stroke="white" stroke-width="2"/>
</svg>
