<svg width="68" height="68" viewBox="0 0 68 68" fill="none" xmlns="http://www.w3.org/2000/svg">
<g clip-path="url(#clip0_99_4316)">
<path fill-rule="evenodd" clip-rule="evenodd" d="M50.6982 42.7951C51.7748 43.2567 52.2215 44.1551 52.4215 45.1917C52.6365 46.2984 52.9665 47.3334 53.8032 48.1434C53.9148 48.2501 53.9948 48.3934 54.0815 48.5267C55.1115 50.0917 54.8765 51.1967 53.2648 52.1301C52.5432 52.5501 51.7798 52.8984 51.0348 53.2734C49.9115 53.8367 48.9265 54.5584 48.0932 55.5201C47.0332 56.7367 45.7382 57.6134 44.1065 57.9184C42.1548 58.2834 40.4398 57.4301 39.6065 55.6067C39.4282 55.2167 39.2265 55.0984 38.8065 55.0767C37.7715 55.0151 36.7365 54.9101 35.7098 54.7584C33.9015 54.4917 32.1648 54.9367 30.4032 55.1951C29.7065 55.2967 29.2215 55.5267 28.7598 56.1201C27.8498 57.2884 26.4732 57.5884 25.0865 57.4051C23.9615 57.2551 22.8065 56.9717 21.7865 56.4901C20.2998 55.7934 18.7615 55.4717 17.1615 55.2984C16.5565 55.2334 15.9482 55.1517 15.3548 55.0251C13.7498 54.6767 12.9882 53.6351 13.4148 52.0601C13.7665 50.7617 13.8148 49.5251 13.6482 48.2001C13.4098 46.3084 13.9832 45.4201 15.8615 44.8867C17.3648 44.4601 17.9365 43.1584 18.8565 42.1751C18.9282 42.0967 18.9148 41.9151 18.9032 41.7851C18.6415 39.2167 19.4082 36.8734 20.4848 34.6067C21.6648 32.1234 23.2465 29.8984 24.9615 27.7601C26.8265 25.4351 27.5815 22.7601 27.3915 19.7984C27.2498 17.5684 27.0598 15.3351 27.5965 13.1217C28.2965 10.2217 30.2898 8.38172 33.2532 8.10172C34.5182 7.98172 35.8465 7.92839 37.0782 8.17672C39.9565 8.75339 41.3198 10.8651 41.9632 13.5484C42.4682 15.6551 42.5332 17.8034 42.4398 19.9484C42.3482 22.0184 42.8248 23.8901 44.0715 25.5467C44.9682 26.7384 45.9515 27.8651 46.7915 29.0951C47.8448 30.6417 48.9148 32.1951 49.7498 33.8617C51.1398 36.6334 51.6698 39.4001 50.6982 42.7951ZM27.8832 49.0551C28.6082 50.2751 29.4365 51.2617 30.8098 51.7334C33.8715 52.7884 36.6598 52.1501 39.3032 50.5001C39.5982 50.3184 39.9032 49.9467 39.9632 49.6217C40.2432 48.0501 40.4415 46.4617 40.6665 44.8751C40.8765 43.3867 41.1798 41.9517 42.7048 41.1767C42.8365 41.1084 42.9015 40.8667 42.9532 40.6951C43.2332 39.7801 43.6832 39.3401 44.6048 39.4834C46.4448 39.7701 48.2715 40.1801 48.8998 42.4234C49.2765 41.7984 49.0865 41.2617 48.6932 40.8601C48.2465 40.4017 47.7265 39.9617 47.1548 39.6917C46.4282 39.3534 46.1698 39.0217 46.2365 38.1234C46.4648 35.0534 45.0348 32.6117 42.9848 30.4684C42.9415 30.4234 42.8615 30.4101 42.7982 30.3834C44.8815 32.8484 46.2598 35.4701 45.2865 38.8067C44.1932 38.7251 44.1782 38.7284 44.0798 38.2501C43.6698 36.2584 42.8582 34.4251 41.9648 32.6117C41.2232 31.0967 40.5648 29.5334 39.9465 27.9651C39.4048 26.5917 38.9698 25.1684 38.4998 23.8051C37.9865 24.1434 37.5048 24.5017 36.9865 24.7984C36.3298 25.1734 35.6348 25.4751 34.9782 25.8501C33.3165 26.7934 31.9665 26.6667 30.5132 25.4167C30.1148 25.0717 29.6732 24.7784 29.1598 24.3951C28.9115 27.0251 28.0265 29.2934 27.0365 31.5317C26.5882 32.5434 26.1332 33.5501 25.6648 34.5501C24.7782 36.4451 24.3032 38.4434 24.1198 40.6701C23.3215 39.5151 23.0998 38.3751 23.1782 37.1617C23.2782 35.5934 23.8465 34.1734 24.5715 32.8034C24.8465 32.2817 25.0898 31.7484 25.3498 31.2167C25.2998 31.1934 25.2482 31.1717 25.1982 31.1484C24.0498 32.9617 23.0115 34.8334 22.5948 36.9684C22.0515 39.7484 22.9748 41.5784 25.3932 43.0134C26.9115 43.9117 28.2982 45.0117 29.1148 46.6467C29.7732 47.9551 29.3482 48.7684 27.8832 49.0551ZM24.6865 55.8551C26.0915 55.7501 27.0982 55.5617 27.6748 54.5334C28.2515 53.5084 28.0598 52.5117 27.4415 51.5784C27.0515 50.9867 26.5965 50.4351 26.2032 49.8434C25.4665 48.7301 24.7448 47.6034 24.0332 46.4751C23.5198 45.6584 23.1015 44.7751 22.5215 44.0134C21.6598 42.8801 20.1698 42.3634 19.0348 44.1334C18.4182 45.0967 17.6015 45.7051 16.5015 46.0384C15.3582 46.3834 15.0465 47.0601 15.1415 48.2651C15.2115 49.1767 15.3482 50.1467 15.1282 51.0067C14.6198 52.9951 14.9582 53.6301 16.9965 53.8384C18.8465 54.0301 20.6515 54.3234 22.3498 55.1951C23.1532 55.6051 24.1165 55.7017 24.6865 55.8551ZM43.4832 42.9317C43.2115 43.2767 42.8665 43.5701 42.7182 43.9434C42.4832 44.5234 42.2915 45.1551 42.2415 45.7734C42.0815 47.7001 41.8948 49.6117 41.2415 51.4467C41.1082 51.8217 41.0315 52.2151 40.9598 52.6051C40.7365 53.8034 40.8548 54.9201 41.8748 55.7501C42.8798 56.5734 44.0315 56.6001 45.1298 56.0684C45.9365 55.6817 46.7532 55.1734 47.3548 54.5217C48.4215 53.3667 49.6615 52.5301 51.0632 51.8751C51.6015 51.6251 52.1332 51.3417 52.6232 51.0084C53.1882 50.6251 53.2982 50.1717 52.9982 49.5534C52.7998 49.1501 52.5548 48.7467 52.2515 48.4134C51.7215 47.8301 51.4465 47.1501 51.2832 46.4017C51.1798 45.9367 51.0715 45.4634 50.8765 45.0351C50.4132 44.0001 49.0748 43.7717 48.1632 44.4367C47.5832 44.8601 46.9082 45.2017 46.2265 45.4301C45.3598 45.7234 44.5965 45.3817 44.1482 44.5867C43.8798 44.1134 43.7332 43.5734 43.4832 42.9317ZM33.0132 25.4651C33.2715 25.3967 33.7315 25.3517 34.1248 25.1617C35.1448 24.6834 36.1382 24.1467 37.1348 23.6184C37.3215 23.5201 37.4915 23.3834 37.6515 23.2434C38.7215 22.2901 38.5498 21.2317 37.2448 20.6551C36.3098 20.2451 35.3798 19.8284 34.4548 19.3951C33.2382 18.8317 32.0615 18.8001 30.9565 19.6451C30.2448 20.1884 29.5498 20.7551 28.8565 21.3217C28.4415 21.6567 28.3432 22.0834 28.5548 22.5817C28.8898 23.3667 31.5765 25.3284 32.4448 25.4167C32.5698 25.4334 32.6965 25.4401 33.0132 25.4651ZM36.6082 19.8501C36.8548 19.9567 37.0482 20.0234 37.2182 20.1234C37.7798 20.4584 38.1582 20.2334 38.2615 19.6767C38.4132 18.8467 38.6165 17.9801 38.5082 17.1634C38.3298 15.8001 37.3098 14.8717 36.2448 14.8167C34.9648 14.7551 33.8998 15.8134 33.6682 17.3684C33.4898 18.5634 33.5215 18.6084 34.6865 18.8817C34.8115 18.3834 34.8598 17.8467 35.0915 17.4067C35.2415 17.1201 35.6632 16.8017 35.9532 16.8117C36.2432 16.8184 36.6348 17.1634 36.7832 17.4601C37.1732 18.2367 37.0415 19.0367 36.6082 19.8501ZM44.4215 42.0984C44.4615 42.7651 44.6032 43.4984 45.3282 43.8401C46.0165 44.1684 46.6348 43.8017 47.1948 43.3934C47.3332 43.2917 47.4615 43.1684 47.5732 43.0384C47.9715 42.5801 47.9665 42.0317 47.4665 41.6867C47.0015 41.3651 46.4748 41.0917 45.9382 40.9117C44.9232 40.5751 44.4148 40.9784 44.4215 42.0984ZM30.9315 19.0784C31.2648 18.8151 31.7832 18.6067 31.8132 18.3401C31.9265 17.3501 31.6698 16.4067 30.9015 15.6934C30.2298 15.0717 29.4282 15.1667 28.8465 15.8951C27.9115 17.0601 28.0632 19.3067 29.1732 20.4001C29.3615 20.2601 29.5548 20.1167 29.7632 19.9601C29.2132 19.3551 29.1032 18.6617 29.2665 17.9617C29.3365 17.6651 29.6698 17.4351 29.8832 17.1734C30.1248 17.3784 30.4482 17.5417 30.5848 17.8017C30.7665 18.1484 30.8032 18.5684 30.9315 19.0784Z" fill="white"/>
<path fill-rule="evenodd" clip-rule="evenodd" d="M30.3153 25.8268C30.4536 25.9434 30.5936 26.0551 30.727 26.1784C32.0403 27.3951 33.0686 27.5384 34.652 26.7018C35.1086 26.4601 35.547 26.1801 36.0036 25.9334C36.172 25.8451 36.367 25.8034 36.5753 25.8168C35.2736 26.5001 34.1553 27.6501 32.5036 27.4218C31.517 27.2851 30.8403 26.6534 30.1953 25.9868C30.2353 25.9351 30.2753 25.8818 30.3153 25.8268Z" fill="white"/>
</g>
<rect x="1" y="1" width="66" height="66" rx="4" stroke="white" stroke-width="2"/>
<defs>
<clipPath id="clip0_99_4316">
<rect width="50" height="50" fill="white" transform="translate(9 8)"/>
</clipPath>
</defs>
</svg>
