<svg width="69" height="68" viewBox="0 0 69 68" fill="none" xmlns="http://www.w3.org/2000/svg">
<rect x="12" y="11.5" width="44" height="44" rx="8.5" stroke="white" stroke-width="3"/>
<path d="M45.6419 25.3652C46.67 23.4014 47.3554 21.274 47.5696 20.4557C48.0837 17.51 47.7838 23.3196 47.5696 26.5926C47.3554 28.0245 46.0274 31.502 42.4289 33.9568C38.8305 36.4115 36.2173 37.4343 35.3605 37.6389C34.2895 38.048 31.3765 38.989 28.2921 39.4799C25.2077 39.9709 23.1514 41.7301 22.5088 42.5484C22.0804 43.1621 20.9666 45.0031 19.9385 47.4578C19.9385 46.2305 20.5811 41.9347 21.2236 40.0936C21.7377 38.6208 23.5798 36.6161 24.4366 35.7978C25.2933 34.9796 27.521 33.2204 29.5772 32.7294C31.6335 32.2385 34.7179 31.2975 36.0031 30.8884C38.7876 29.8655 44.6137 27.329 45.6419 25.3652Z" stroke="white" stroke-width="1.5"/>
<path d="M19.9379 46.8443C19.7237 45.4124 20.3235 41.6893 24.436 38.2527C28.5486 34.8161 33.8607 33.5478 36.0027 33.3432C38.3588 32.9341 43.4566 31.5022 44.9988 29.0474C46.5411 26.5927 47.355 23.1152 47.5692 21.6832" stroke="white" stroke-width="1.5"/>
<path d="M21.2236 41.9347C22.9372 40.5027 26.8784 37.5161 28.9346 37.0252C30.9909 36.5343 35.3605 35.5933 37.2882 35.1841C39.6444 34.3659 44.3567 32.6067 44.3567 32.1157" stroke="white" stroke-width="1.5"/>
<rect x="1.5" y="1" width="66" height="66" rx="4" stroke="white" stroke-width="2"/>
</svg>
