<svg width="68" height="68" viewBox="0 0 68 68" fill="none" xmlns="http://www.w3.org/2000/svg">
<path d="M28.6786 19.648H31.8929M23.8571 23.8839V16.824C23.8571 15.2643 25.2962 14 27.0714 14H39.9286C41.7038 14 43.1429 15.2643 43.1429 16.824V30.9439C43.1429 32.5035 41.7038 33.7679 39.9286 33.7679H27.0714C25.2962 33.7679 23.8571 35.0322 23.8571 36.5918V50.7117C23.8571 52.2714 25.2962 53.5357 27.0714 53.5357H39.9286C41.7038 53.5357 43.1429 52.2714 43.1429 50.7117V43.6518M35.1071 25.2959H14.2143C12.4391 25.2959 11 26.5603 11 28.1199V42.2398C11 43.7995 12.4391 45.0638 14.2143 45.0638H23.8571M31.8929 42.2398H52.7857C54.561 42.2398 56 40.9755 56 39.4158V25.2959C56 23.7363 54.561 22.4719 52.7857 22.4719H43.1429M35.1071 47.8878H38.3214" stroke="white" stroke-width="3"/>
<rect x="1" y="1" width="66" height="66" rx="4" stroke="white" stroke-width="2"/>
</svg>
