<svg width="56" height="56" viewBox="0 0 56 56" fill="none" xmlns="http://www.w3.org/2000/svg">
<rect x="1.5" y="1.76318" width="53" height="52.9992" rx="4" stroke="white" stroke-width="2"/>
<path d="M12.6156 20.4592C12.1272 20.5987 11.6837 20.8634 11.3291 21.2269C10.9744 21.5905 10.7208 22.0403 10.5933 22.532C10.4659 23.0236 10.469 23.54 10.6024 24.0301C10.7358 24.5202 10.9949 24.9669 11.354 25.3261L16.3303 30.2966V39.9022H25.9461L30.956 44.9048C31.2249 45.176 31.5448 45.3914 31.8972 45.5386C32.2496 45.6858 32.6276 45.7618 33.0096 45.7624C33.2606 45.7619 33.5105 45.7296 33.7534 45.6661C34.2448 45.5424 34.695 45.2913 35.0586 44.9382C35.4221 44.5851 35.6863 44.1425 35.8244 43.6549L45.5 10.7632L12.6156 20.4592ZM13.4265 23.2638L38.2615 15.9423L19.2502 34.923V29.089L13.4265 23.2638ZM33.0285 42.8425L27.1552 36.9853H21.3213L40.3297 17.9929L33.0285 42.8425Z" fill="white"/>
</svg>
