<svg width="68" height="68" viewBox="0 0 68 68" fill="none" xmlns="http://www.w3.org/2000/svg">
<path d="M34.2772 46.9017L34.2718 46.9646L34.2718 47.0278L34.2719 56.1437C29.7217 56.2988 25.2183 55.0791 21.3568 52.6276C17.1112 49.9323 13.883 45.901 12.1808 41.1689C10.4786 36.4368 10.3992 31.2729 11.955 26.4906C13.5108 21.7084 16.6135 17.5797 20.7741 14.755C24.9348 11.9303 29.917 10.5701 34.9359 10.8887C39.9547 11.2074 44.7249 13.1867 48.4949 16.515C52.2649 19.8432 54.8205 24.3311 55.759 29.2717C56.6615 34.0225 56.0194 38.9321 53.9354 43.2845C53.3591 43.4859 52.9528 43.5899 52.6712 43.6332C52.659 43.5637 52.6453 43.481 52.6287 43.3798C52.618 43.3149 52.606 43.2423 52.5924 43.1608C52.4619 42.3805 52.2199 41.1107 51.1196 40.0399C50.0364 38.9856 48.3572 38.3413 45.8695 38.1254C41.7447 37.7672 38.8547 39.0731 36.9809 41.0136C35.1639 42.8954 34.4162 45.2537 34.2772 46.9017Z" stroke="white" stroke-width="3" stroke-linecap="round"/>
<circle cx="24.4816" cy="28.6687" r="1.72091" fill="white" stroke="white" stroke-width="3"/>
<circle cx="34.466" cy="22.5489" r="1.72091" fill="white" stroke="white" stroke-width="3"/>
<circle cx="44.7727" cy="28.3465" r="1.72091" fill="white" stroke="white" stroke-width="3"/>
<circle cx="24.4816" cy="40.586" r="1.72091" fill="white" stroke="white" stroke-width="3"/>
<rect x="1" y="1" width="66" height="66" rx="4" stroke="white" stroke-width="2"/>
</svg>
